<?xml version="1.0" encoding="utf-8"?>
<!-- Generator: Adobe Illustrator 21.1.0, SVG Export Plug-In . SVG Version: 6.00 Build 0)  -->
<svg version="1.1" id="Layer_1" xmlns="http://www.w3.org/2000/svg" xmlns:xlink="http://www.w3.org/1999/xlink" x="0px" y="0px"
	 viewBox="0 0 50 50" style="enable-background:new 0 0 50 50;" xml:space="preserve">
<style type="text/css">
	.st0{fill:#FFFFFF;}
	.st1{fill:none;stroke:#F15D64;stroke-width:8.226355e-02;stroke-miterlimit:10;}
	.st2{fill:none;stroke:#F15D64;stroke-width:0.8142;stroke-linecap:round;stroke-linejoin:round;stroke-miterlimit:10;}
	.st3{fill:none;stroke:#F15D64;stroke-width:7.583863e-02;stroke-miterlimit:10;}
	.st4{fill:none;stroke:#F15D64;stroke-width:6.785261e-02;stroke-miterlimit:10;}
	.st5{fill:#F15D64;}
</style>
<circle class="st0" cx="24.7" cy="25.5" r="23.7"/>
<path class="st1" d="M12.1,20.2"/>
<path class="st2" d="M12.1,20.2c1-2.4,2.8-4.5,4.9-6"/>
<path class="st2" d="M9.7,18.6c1.3-2.7,3.2-5.1,5.7-6.7"/>
<path class="st3" d="M9.7,18.6"/>
<path class="st4" d="M1.8,17.7"/>
<path class="st2" d="M6.2,17.7c1.7-4,4.7-7.4,8.4-9.6"/>
<path class="st2" d="M32.6,35.3c2.1-1.6,3.8-3.7,4.7-6.2"/>
<path class="st2" d="M34.7,37.3c2.4-1.8,4.2-4.3,5.3-7.1"/>
<path class="st2" d="M36.4,40.5c3.5-2.6,6.1-6.2,7.4-10.4"/>
<circle class="st5" cx="24.7" cy="25.5" r="6.9"/>
<circle class="st0" cx="24.7" cy="25.5" r="0.8"/>
</svg>
